<svg width="708" height="144" viewBox="0 0 708 144" fill="none" xmlns="http://www.w3.org/2000/svg">
<path fill-rule="evenodd" clip-rule="evenodd" d="M79.4879 106.04C79.2594 106.834 79.9021 107.613 80.7851 107.613H89.4526C90.3356 107.613 90.9783 106.833 90.7497 106.04L86.416 90.9906C86.0604 89.7557 84.1773 89.7557 83.8217 90.9906L79.4879 106.04Z" fill="#0364FF"/>
<path fill-rule="evenodd" clip-rule="evenodd" d="M72.0646 116.334C71.489 118.497 69.5421 120 67.318 120H55.4519C52.2208 120 49.869 116.915 50.7053 113.774L73.5397 28.0092C74.1693 25.6444 76.2987 24 78.7313 24H92.5325C94.9652 24 97.0945 25.6444 97.7242 28.0092L120.559 113.774C121.395 116.915 119.043 120 115.812 120H103.946C101.722 120 99.7749 118.497 99.1992 116.334L87.9311 74.0116C87.3008 71.6443 83.9631 71.6443 83.3328 74.0116L72.0646 116.334Z" fill="#0364FF"/>
<path fill-rule="evenodd" clip-rule="evenodd" d="M126.661 100.622C126.013 103.061 122.579 103.061 121.93 100.622L113.534 69.0447C113.388 68.4955 113.388 67.9172 113.534 67.3679L124.062 27.7728C124.654 25.5474 126.655 24 128.941 24H140.451C143.772 24 146.189 27.1748 145.33 30.4078L126.661 100.622ZM56.6871 68.9934C56.8331 68.4441 56.8331 67.8658 56.6871 67.3166L46.1732 27.7728C45.5815 25.5474 43.5805 24 41.2944 24H29.7842C26.4631 24 24.0458 27.1748 24.9054 30.4078L43.5603 100.571C44.2087 103.01 47.6428 103.01 48.2913 100.571L56.6871 68.9934Z" fill="#0364FF"/>
<path fill-rule="evenodd" clip-rule="evenodd" d="M346.036 109.985C349.666 111.844 353.658 112.774 358.013 112.774C365.836 112.774 372.45 109.702 377.853 103.558C383.418 97.4133 386.201 89.9349 386.201 81.1226C386.201 72.3912 383.418 64.9128 377.853 58.6876C372.45 52.5433 365.836 49.4711 358.013 49.4711C353.658 49.4711 349.666 50.4008 346.036 52.2603C343.986 53.3349 342.192 54.612 340.669 56.0916C339.712 57.0221 337.773 56.385 337.773 55.0483V25.6416C337.773 24.735 337.04 24 336.135 24H328.317C327.413 24 326.68 24.735 326.68 25.6416V109.192C326.68 110.099 327.413 110.834 328.317 110.834H336.172C337.077 110.834 337.81 110.099 337.81 109.192V107.197C337.81 105.86 339.744 105.227 340.699 106.16C342.209 107.637 343.989 108.912 346.036 109.985ZM369.627 96.524C365.998 100.566 361.521 102.587 356.198 102.587C350.795 102.587 346.278 100.607 342.649 96.6452C339.1 92.6029 337.326 87.4287 337.326 81.1226C337.326 74.8974 339.1 69.7636 342.649 65.7213C346.278 61.6789 350.795 59.6578 356.198 59.6578C361.521 59.6578 365.998 61.6789 369.627 65.7213C373.256 69.7636 375.071 74.8974 375.071 81.1226C375.071 87.4287 373.256 92.5625 369.627 96.524ZM266.901 103.8C272.547 109.783 279.725 112.774 288.435 112.774C294.403 112.774 299.726 111.359 304.404 108.53C308.623 106.021 312.018 102.654 314.589 98.4285C315.132 97.5359 314.756 96.3861 313.819 95.9277L307.169 92.676C306.295 92.2486 305.245 92.5811 304.717 93.4C300.77 99.525 295.504 102.587 288.919 102.587C283.757 102.587 279.321 100.809 275.611 97.2515C272.336 94.1112 270.444 90.0888 269.934 85.1843C269.821 84.0924 270.709 83.1842 271.804 83.1842H314.528C315.58 83.1842 316.467 82.3857 316.512 81.3325C316.86 73.1179 314.201 64.0863 308.638 58.0812C303.476 52.3411 296.5 49.471 287.709 49.471C279.16 49.471 272.143 52.5028 266.659 58.5663C261.175 64.549 258.432 72.0678 258.432 81.1226C258.432 90.2583 261.255 97.8175 266.901 103.8ZM273.075 73.9677C271.831 73.9677 270.902 72.8089 271.295 71.6259C272.388 68.3406 274.15 65.6447 276.579 63.5384C279.644 60.9513 283.273 59.6578 287.467 59.6578C292.548 59.6578 296.581 61.0321 299.565 63.7809C302.096 65.9846 303.692 68.6846 304.353 71.881C304.583 72.9941 303.677 73.9677 302.543 73.9677H273.075ZM253.364 51.4114C254.545 51.4114 255.383 52.5646 255.02 53.6908L237.028 109.625C236.796 110.345 236.127 110.834 235.372 110.834H226.532C225.778 110.834 225.11 110.347 224.877 109.628L212.072 70.0683C211.582 68.5531 209.442 68.5557 208.956 70.072L196.258 109.624C196.027 110.345 195.357 110.834 194.602 110.834H185.886C185.131 110.834 184.462 110.345 184.23 109.625L166.238 53.6908C165.875 52.5646 166.713 51.4114 167.894 51.4114H175.817C176.588 51.4114 177.268 51.9207 177.486 52.6627L188.822 91.2356C189.276 92.7798 191.445 92.8146 191.948 91.2858L204.67 52.6094C204.905 51.8944 205.571 51.4114 206.322 51.4114H215.295C216.048 51.4114 216.715 51.8964 216.949 52.6134L229.557 91.2603C230.057 92.7923 232.23 92.7601 232.684 91.2139L244.014 52.6627C244.232 51.9207 244.911 51.4114 245.683 51.4114H253.364ZM611.953 111.804C607.114 111.804 603.081 110.308 599.855 107.317C596.71 104.326 595.097 100.162 595.016 94.8262V63.2397C595.016 62.3331 594.283 61.5981 593.379 61.5981H586.25C585.345 61.5981 584.612 60.8632 584.612 59.9565V53.053C584.612 52.1464 585.345 51.4114 586.25 51.4114H593.379C594.283 51.4114 595.016 50.6764 595.016 49.7698V25.6416C595.016 24.735 595.749 24 596.654 24H604.509C605.413 24 606.146 24.735 606.146 25.6416V49.7698C606.146 50.6764 606.879 51.4114 607.784 51.4114H619.026C619.93 51.4114 620.663 52.1464 620.663 53.053V59.9565C620.663 60.8632 619.93 61.5981 619.026 61.5981H607.784C606.879 61.5981 606.146 62.3331 606.146 63.2397V91.1881C606.146 95.1496 606.912 97.8579 608.445 99.3132C609.977 100.688 611.711 101.375 613.647 101.375C614.534 101.375 615.381 101.294 616.187 101.132C616.448 101.061 616.703 100.986 616.95 100.908C617.86 100.619 618.879 101.055 619.197 101.957L621.573 108.69C621.873 109.541 621.433 110.48 620.567 110.725C618.027 111.444 615.155 111.804 611.953 111.804ZM449.009 87.3074C449.009 94.5836 446.308 100.647 440.904 105.498C435.581 110.349 428.967 112.774 421.064 112.774C414.853 112.774 409.248 110.915 404.248 107.196C399.6 103.646 396.336 99.1161 394.455 93.6051C394.152 92.7187 394.615 91.7653 395.478 91.4049L402.207 88.5945C403.227 88.1682 404.384 88.736 404.756 89.7799C406.059 93.4362 407.946 96.331 410.418 98.4643C413.402 100.89 416.95 102.102 421.064 102.102C425.58 102.102 429.492 100.688 432.798 97.8579C436.024 94.9474 437.638 91.4306 437.638 87.3074C437.638 83.1842 435.944 79.7078 432.556 76.8782C429.25 74.0485 425.257 72.6337 420.58 72.6337H415.284C414.267 72.6337 413.442 71.8069 413.442 70.7869V64.0512C413.442 63.0313 414.267 62.2045 415.284 62.2045H419.733C424.169 62.2045 427.798 60.9918 430.621 58.5663C433.444 56.0601 434.855 52.8262 434.855 48.8647C434.855 45.2266 433.524 42.2757 430.863 40.012C428.201 37.7483 424.693 36.6164 420.338 36.6164C413.936 36.6164 409.381 39.6107 406.672 45.5991C406.235 46.5647 405.122 47.0616 404.148 46.6482L397.271 43.7284C396.367 43.3448 395.916 42.3152 396.309 41.4138C398.205 37.0636 401.093 33.4837 404.974 30.6742C409.329 27.5211 414.45 25.9446 420.338 25.9446C427.677 25.9446 433.847 28.1275 438.847 32.4932C443.767 36.6973 446.227 42.1544 446.227 48.8647C446.227 55.9417 443.326 61.9758 437.525 65.961C436.557 66.6265 436.583 68.1601 437.608 68.7358C442.456 71.4604 444.109 73.6102 445.259 75.3017C447.759 78.8589 449.009 82.8608 449.009 87.3074ZM473.235 84.5182C470.251 86.7011 468.759 89.4094 468.759 92.6433C468.759 95.5538 469.969 97.9792 472.388 99.9195C474.889 101.86 477.792 102.83 481.099 102.83C485.777 102.83 489.93 101.092 493.559 97.6154C497.032 94.3617 498.879 90.5769 499.102 86.2609C499.131 85.6969 498.871 85.1573 498.409 84.8333C495.002 82.4404 490.401 81.2439 484.607 81.2439C480.091 81.2439 476.3 82.3353 473.235 84.5182ZM483.155 49.4711C491.382 49.4711 497.874 51.6944 502.633 56.1409C507.391 60.5067 509.77 66.5298 509.77 74.2102V109.192C509.77 110.099 509.037 110.834 508.133 110.834H500.278C499.374 110.834 498.64 110.099 498.64 109.192V102.587C494.043 109.379 487.914 112.774 480.252 112.774C473.719 112.774 468.235 110.834 463.799 106.953C459.444 103.073 457.266 98.2217 457.266 92.4008C457.266 86.2564 459.565 81.3652 464.162 77.7271C468.84 74.089 475.05 72.2699 482.792 72.2699C488.168 72.2699 492.771 73.0712 496.602 74.6738C497.759 75.1581 499.124 74.3479 499.016 73.0951C498.703 69.4503 497.612 66.2234 494.527 63.5384C491.462 60.7896 487.873 59.4152 483.76 59.4152C478.069 59.4152 473.461 61.6223 469.937 66.0365C469.389 66.7227 468.416 66.9287 467.674 66.4605L460.655 62.0301C459.864 61.5308 459.646 60.4665 460.224 59.7301C465.594 52.8907 473.237 49.4711 483.155 49.4711ZM572.604 110.834C573.565 110.834 574.344 110.053 574.344 109.09V53.1556C574.344 52.1923 573.565 51.4114 572.604 51.4114H564.954C563.993 51.4114 563.214 52.1923 563.214 53.1556V84.2757C563.214 89.2882 561.722 93.6135 558.738 97.2516C555.754 100.809 552.044 102.587 547.608 102.587C538.091 102.587 533.212 97.7367 532.97 88.035V53.1556C532.97 52.1923 532.191 51.4114 531.23 51.4114H523.58C522.619 51.4114 521.84 52.1923 521.84 53.1556V88.7627C521.84 96.4431 523.775 102.385 527.647 106.589C531.599 110.713 537.204 112.774 544.463 112.774C548.253 112.774 551.883 111.804 555.351 109.864C557.33 108.781 559.021 107.548 560.423 106.164C561.317 105.282 563.214 105.885 563.214 107.141V109.09C563.214 110.053 563.993 110.834 564.954 110.834H572.604ZM633.479 24C632.575 24 631.842 24.735 631.842 25.6416V109.192C631.842 110.099 632.575 110.834 633.479 110.834H641.334C642.238 110.834 642.971 110.099 642.971 109.192V78.4547C642.971 73.4422 644.504 69.0764 647.569 65.3575C650.714 61.5577 654.545 59.6578 659.062 59.6578C668.498 59.6578 673.216 64.9937 673.216 75.6655V109.192C673.216 110.099 673.949 110.834 674.854 110.834H682.708C683.613 110.834 684.346 110.099 684.346 109.192V73.4826C684.346 65.8021 682.37 59.9003 678.418 55.7771C674.547 51.5731 668.982 49.4711 661.723 49.4711C657.932 49.4711 654.263 50.4412 650.714 52.3816C648.785 53.4611 647.13 54.6908 645.749 56.0706C644.862 56.958 642.971 56.3605 642.971 55.1038V25.6416C642.971 24.735 642.238 24 641.334 24H633.479Z" fill="#0F1222"/>
</svg>
